<svg width="40" height="40" viewBox="0 0 52 52" fill="none" xmlns="http://www.w3.org/2000/svg">
<rect x="0.5" y="0.5" width="51" height="51" rx="5.5" fill="white"/>
<path d="M34.625 10H18.2083C13.675 10 10 13.6746 10 18.2075V34.6225C10 39.1554 13.675 42.83 18.2083 42.83H34.625C39.1583 42.83 42.8333 39.1554 42.8333 34.6225V18.2075C42.8333 13.6746 39.1583 10 34.625 10Z" stroke="black" stroke-width="3" stroke-linecap="round" stroke-linejoin="round"/>
<path d="M32.9833 25.381C33.1859 26.7471 32.9526 28.1423 32.3164 29.3682C31.6803 30.5941 30.6737 31.5881 29.44 32.2091C28.2063 32.83 26.8081 33.0461 25.4444 32.8267C24.0808 32.6073 22.821 31.9635 21.8444 30.9869C20.8677 30.0104 20.2239 28.7508 20.0044 27.3872C19.785 26.0237 20.0011 24.6257 20.6221 23.3921C21.2431 22.1585 22.2373 21.152 23.4633 20.5159C24.6893 19.8799 26.0846 19.6465 27.4509 19.8491C28.8446 20.0557 30.1348 20.7051 31.131 21.7012C32.1273 22.6974 32.7767 23.9875 32.9833 25.381Z" stroke="black" stroke-width="3" stroke-linecap="round" stroke-linejoin="round"/>
<path d="M35.4458 17.3867H35.4622" stroke="black" stroke-width="3" stroke-linecap="round" stroke-linejoin="round"/>
<rect x="0.5" y="0.5" width="51" height="51" rx="5.5" stroke="white"/>
</svg>
