<svg width="71" height="70" viewBox="0 0 71 70" fill="none">
    <path
        d="M35.1147 68C53.3527 68 68.1376 53.2254 68.1376 35C68.1376 16.7746 53.3527 2 35.1147 2C16.8766 2 2.0918 16.7746 2.0918 35C2.0918 53.2254 16.8766 68 35.1147 68Z"
        stroke="url(#logopaint0_linear)" stroke-width="4" stroke-miterlimit="10" />
    <path
        d="M46.9324 17.8785C42.0271 7.85039 35.198 3.05737 35.198 3.05737C35.198 3.05737 20.5269 11.7271 20.0267 32.3473C19.5202 52.9675 35.1147 67.0517 35.1147 67.0517C35.1147 67.0517 42.1745 60.5543 47.1825 52.0383"
        stroke="url(#logopaint1_linear)" stroke-width="4" stroke-miterlimit="10" />
    <path d="M20.046 34.6796H2.0918" stroke="url(#logopaint2_linear)" stroke-width="4" stroke-miterlimit="10" />
    <path d="M7.46533 17.3787H23.156H63.4055H7.46533Z" stroke="url(#logopaint3_linear)" stroke-width="4"
        stroke-miterlimit="10" />
    <path d="M7.46533 52.6213H63.4055H7.46533Z" stroke="url(#logopaint4_linear)" stroke-width="4" stroke-miterlimit="10" />
    <path
        d="M35.9312 32.3802L41.1762 24H44.5726L37.6595 34.8431L44.738 45.8665H41.3114L35.9312 37.3362L30.5209 45.8665H27.1094L34.2029 34.8431L27.2747 24H30.6561L35.9312 32.3802Z"
        fill="url(#logopaint5_linear)" />
    <path d="M60.1573 36.2098H50.9748V45.8665H48.0893V24H61.6452V26.3729H50.9748V33.8519H60.1573V36.2098Z"
        fill="url(#logopaint6_linear)" />
    <path
        d="M35.9312 32.3802L41.1762 24H44.5726L37.6595 34.8431L44.738 45.8665H41.3114L35.9312 37.3362L30.5209 45.8665H27.1094L34.2029 34.8431L27.2747 24H30.6561L35.9312 32.3802Z"
        stroke="url(#logopaint7_linear)" stroke-miterlimit="10" />
    <path d="M60.1573 36.2098H50.9748V45.8665H48.0893V24H61.6452V26.3729H50.9748V33.8519H60.1573V36.2098Z"
        stroke="url(#logopaint8_linear)" stroke-miterlimit="10" />
    <defs>
        <linearGradient id="logopaint0_linear" x1="35.1147" y1="2" x2="35.1147" y2="68" gradientUnits="userSpaceOnUse">
            <stop stop-color="#1E8130" />
            <stop offset="1" stop-color="#7DEF24" />
        </linearGradient>
        <linearGradient id="logopaint1_linear" x1="33.5986" y1="3.05737" x2="33.5986" y2="67.0517"
            gradientUnits="userSpaceOnUse">
            <stop stop-color="#1E8130" />
            <stop offset="1" stop-color="#7DEF24" />
        </linearGradient>
        <linearGradient id="logopaint2_linear" x1="11.0689" y1="34.6796" x2="11.0689" y2="35.6796"
            gradientUnits="userSpaceOnUse">
            <stop stop-color="#1E8130" />
            <stop offset="1" stop-color="#7DEF24" />
        </linearGradient>
        <linearGradient id="logopaint3_linear" x1="35.4354" y1="17.3787" x2="35.4354" y2="18.3787"
            gradientUnits="userSpaceOnUse">
            <stop stop-color="#1E8130" />
            <stop offset="1" stop-color="#7DEF24" />
        </linearGradient>
        <linearGradient id="logopaint4_linear" x1="35.4354" y1="52.6213" x2="35.4354" y2="53.6213"
            gradientUnits="userSpaceOnUse">
            <stop stop-color="#1E8130" />
            <stop offset="1" stop-color="#7DEF24" />
        </linearGradient>
        <linearGradient id="logopaint5_linear" x1="44.3773" y1="24" x2="44.3773" y2="45.8665"
            gradientUnits="userSpaceOnUse">
            <stop stop-color="#1E8130" />
            <stop offset="1" stop-color="#7DBB02" />
        </linearGradient>
        <linearGradient id="logopaint6_linear" x1="44.3773" y1="24" x2="44.3773" y2="45.8665"
            gradientUnits="userSpaceOnUse">
            <stop stop-color="#1E8130" />
            <stop offset="1" stop-color="#7DBB02" />
        </linearGradient>
        <linearGradient id="logopaint7_linear" x1="44.3773" y1="24" x2="44.3773" y2="45.8665"
            gradientUnits="userSpaceOnUse">
            <stop stop-color="#1E8130" />
            <stop offset="1" stop-color="#7DEF24" />
        </linearGradient>
        <linearGradient id="logopaint8_linear" x1="44.3773" y1="24" x2="44.3773" y2="45.8665"
            gradientUnits="userSpaceOnUse">
            <stop stop-color="#1E8130" />
            <stop offset="1" stop-color="#7DEF24" />
        </linearGradient>
    </defs>
</svg>