<svg viewBox="0 0 238 148" fill="none">
    <path
        d="M112.193 35.7824C112.192 37.8468 110.953 39.8264 108.749 41.2856C106.545 42.7449 103.556 43.5643 100.44 43.5636C97.3244 43.5629 94.3366 42.7422 92.1341 41.282C89.9315 39.8217 88.6948 37.8416 88.6958 35.7772C88.6968 33.7128 89.9356 31.7332 92.1396 30.2739C93.2309 29.5514 94.5263 28.9783 95.9519 28.5875C97.3775 28.1966 98.9053 27.9956 100.448 27.9959C101.991 27.9963 103.519 28.198 104.944 28.5894C106.369 28.9809 107.664 29.5546 108.754 30.2776C109.845 31.0006 110.71 31.8589 111.3 32.8034C111.89 33.7479 112.193 34.7602 112.193 35.7824V35.7824Z"
        fill="url(#servicesvgpaint0_linear)" />
    <path
        d="M112.192 48.75H88.7032C86.6266 48.75 84.6351 49.2965 83.1668 50.2694C81.6984 51.2422 80.8735 52.5617 80.8735 53.9375V79.875H88.7032V111H98.4903V79.875H102.405V111H112.192V79.875H120.022V53.9375C120.022 52.5617 119.197 51.2422 117.729 50.2694C116.26 49.2965 114.269 48.75 112.192 48.75V48.75Z"
        fill="url(#servicesvgpaint1_linear)" />
    <path fill-rule="evenodd" clip-rule="evenodd"
        d="M147.031 49.4375H111.969C111.546 49.4375 111.141 49.533 110.842 49.7029C110.543 49.8729 110.375 50.1034 110.375 50.3438V63.9375H148.625V50.3438C148.625 50.1034 148.457 49.8729 148.158 49.7029C147.859 49.533 147.454 49.4375 147.031 49.4375ZM111.969 47.625C110.701 47.625 109.485 47.9114 108.588 48.4213C107.691 48.9312 107.188 49.6227 107.188 50.3438V65.75H151.812V50.3438C151.812 49.6227 151.309 48.9312 150.412 48.4213C149.515 47.9114 148.299 47.625 147.031 47.625H111.969Z"
        fill="#49811E" />
    <path
        d="M104 65.75H155V66.6562C155 67.3773 154.496 68.0688 153.6 68.5787C152.703 69.0886 151.487 69.375 150.219 69.375H108.781C107.513 69.375 106.297 69.0886 105.4 68.5787C104.504 68.0688 104 67.3773 104 66.6562V65.75Z"
        fill="#49811E" />
    <path
        d="M68.6 69H169.4C172.48 69 175 70.4538 175 72.2308C175 74.0077 172.48 75.4615 169.4 75.4615V111H158.2V104.538H135.8V111H124.6V75.4615H79.8V111H68.6V75.4615C65.52 75.4615 63 74.0077 63 72.2308C63 70.4538 65.52 69 68.6 69ZM141.4 83.5385V85.1538H152.6V83.5385C152.6 82.6338 151.368 81.9231 149.8 81.9231H144.2C142.632 81.9231 141.4 82.6338 141.4 83.5385ZM141.4 96.4615V98.0769H152.6V96.4615C152.6 95.5569 151.368 94.8462 149.8 94.8462H144.2C142.632 94.8462 141.4 95.5569 141.4 96.4615Z"
        fill="url(#servicesvgpaint2_linear)" />
    <path
        d="M88.2617 117.479L90.1279 114.047H92.4863L89.5879 118.982L92.5615 124H90.1758L88.2617 120.514L86.3477 124H83.9619L86.9355 118.982L84.0371 114.047H86.3955L88.2617 117.479Z"
        fill="url(#servicesvgpaint3_linear)" />
    <path
        d="M100.969 120.37C100.969 121.509 100.709 122.423 100.19 123.111C99.6746 123.795 98.9774 124.137 98.0978 124.137C97.3504 124.137 96.7466 123.877 96.2863 123.357V126.844H94.3107V116.604H96.1427L96.2111 117.328C96.6896 116.754 97.314 116.467 98.0841 116.467C98.9956 116.467 99.7043 116.804 100.21 117.479C100.716 118.153 100.969 119.083 100.969 120.268V120.37ZM98.9933 120.227C98.9933 119.538 98.8703 119.007 98.6242 118.634C98.3826 118.26 98.0295 118.073 97.5646 118.073C96.9448 118.073 96.5187 118.31 96.2863 118.784V121.812C96.5278 122.3 96.9585 122.544 97.5783 122.544C98.5216 122.544 98.9933 121.771 98.9933 120.227Z"
        fill="url(#servicesvgpaint4_linear)" />
    <path
        d="M102.732 120.233C102.732 119.5 102.873 118.846 103.156 118.271C103.438 117.697 103.844 117.253 104.372 116.938C104.906 116.624 105.523 116.467 106.225 116.467C107.223 116.467 108.036 116.772 108.665 117.383C109.299 117.993 109.652 118.823 109.725 119.871L109.739 120.377C109.739 121.512 109.422 122.423 108.788 123.111C108.155 123.795 107.305 124.137 106.239 124.137C105.172 124.137 104.32 123.795 103.682 123.111C103.048 122.428 102.732 121.498 102.732 120.322V120.233ZM104.707 120.377C104.707 121.079 104.84 121.617 105.104 121.99C105.368 122.359 105.746 122.544 106.239 122.544C106.717 122.544 107.091 122.362 107.36 121.997C107.629 121.628 107.763 121.04 107.763 120.233C107.763 119.545 107.629 119.012 107.36 118.634C107.091 118.256 106.713 118.066 106.225 118.066C105.742 118.066 105.368 118.256 105.104 118.634C104.84 119.007 104.707 119.589 104.707 120.377Z"
        fill="url(#servicesvgpaint5_linear)" />
    <path
        d="M113.88 124H111.898V116.604H113.88V124ZM111.782 114.689C111.782 114.393 111.88 114.149 112.076 113.958C112.276 113.767 112.547 113.671 112.889 113.671C113.226 113.671 113.495 113.767 113.696 113.958C113.896 114.149 113.997 114.393 113.997 114.689C113.997 114.99 113.894 115.236 113.689 115.428C113.488 115.619 113.222 115.715 112.889 115.715C112.556 115.715 112.288 115.619 112.083 115.428C111.882 115.236 111.782 114.99 111.782 114.689Z"
        fill="url(#servicesvgpaint6_linear)" />
    <path d="M118.439 124H116.457V113.5H118.439V124Z" fill="url(#servicesvgpaint7_linear)" />
    <path
        d="M123.278 114.785V116.604H124.543V118.053H123.278V121.744C123.278 122.018 123.331 122.214 123.435 122.332C123.54 122.451 123.741 122.51 124.037 122.51C124.256 122.51 124.449 122.494 124.618 122.462V123.959C124.231 124.077 123.832 124.137 123.422 124.137C122.036 124.137 121.33 123.437 121.303 122.038V118.053H120.222V116.604H121.303V114.785H123.278Z"
        fill="url(#servicesvgpaint8_linear)" />
    <path d="M136.928 119.933H132.99V124H130.94V114.047H137.42V115.708H132.99V118.278H136.928V119.933Z"
        fill="url(#servicesvgpaint9_linear)" />
    <path
        d="M143.298 118.456C143.029 118.42 142.792 118.401 142.587 118.401C141.84 118.401 141.35 118.654 141.117 119.16V124H139.142V116.604H141.008L141.063 117.485C141.459 116.806 142.008 116.467 142.71 116.467C142.929 116.467 143.134 116.496 143.325 116.556L143.298 118.456Z"
        fill="url(#servicesvgpaint10_linear)" />
    <path
        d="M148.363 124.137C147.278 124.137 146.394 123.804 145.71 123.139C145.031 122.473 144.692 121.587 144.692 120.479V120.288C144.692 119.545 144.835 118.882 145.123 118.299C145.41 117.711 145.815 117.26 146.339 116.945C146.868 116.626 147.47 116.467 148.144 116.467C149.156 116.467 149.951 116.786 150.53 117.424C151.113 118.062 151.405 118.966 151.405 120.138V120.944H146.695C146.759 121.427 146.95 121.815 147.269 122.106C147.593 122.398 148 122.544 148.493 122.544C149.254 122.544 149.848 122.268 150.277 121.717L151.247 122.804C150.951 123.223 150.55 123.551 150.044 123.788C149.539 124.021 148.978 124.137 148.363 124.137ZM148.137 118.066C147.745 118.066 147.426 118.199 147.18 118.463C146.939 118.727 146.784 119.105 146.715 119.598H149.463V119.44C149.454 119.003 149.336 118.666 149.108 118.429C148.88 118.187 148.556 118.066 148.137 118.066Z"
        fill="url(#servicesvgpaint11_linear)" />
    <path
        d="M156.777 124.137C155.692 124.137 154.808 123.804 154.125 123.139C153.446 122.473 153.106 121.587 153.106 120.479V120.288C153.106 119.545 153.25 118.882 153.537 118.299C153.824 117.711 154.229 117.26 154.754 116.945C155.282 116.626 155.884 116.467 156.558 116.467C157.57 116.467 158.365 116.786 158.944 117.424C159.527 118.062 159.819 118.966 159.819 120.138V120.944H155.109C155.173 121.427 155.364 121.815 155.683 122.106C156.007 122.398 156.415 122.544 156.907 122.544C157.668 122.544 158.263 122.268 158.691 121.717L159.662 122.804C159.365 123.223 158.964 123.551 158.459 123.788C157.953 124.021 157.392 124.137 156.777 124.137ZM156.551 118.066C156.159 118.066 155.84 118.199 155.594 118.463C155.353 118.727 155.198 119.105 155.129 119.598H157.878V119.44C157.868 119.003 157.75 118.666 157.522 118.429C157.294 118.187 156.971 118.066 156.551 118.066Z"
        fill="url(#servicesvgpaint12_linear)" />
    <path
        d="M97.9573 137.389C97.9573 137.001 97.8205 136.705 97.5471 136.5C97.2737 136.29 96.7815 136.072 96.0705 135.844C95.3596 135.611 94.7968 135.383 94.3821 135.16C93.2519 134.549 92.6868 133.727 92.6868 132.692C92.6868 132.155 92.8371 131.676 93.1379 131.257C93.4433 130.833 93.8785 130.503 94.4436 130.266C95.0133 130.029 95.6513 129.91 96.3577 129.91C97.0686 129.91 97.7021 130.04 98.258 130.3C98.814 130.555 99.2447 130.917 99.55 131.387C99.8599 131.856 100.015 132.389 100.015 132.986H97.9641C97.9641 132.531 97.8205 132.177 97.5334 131.927C97.2463 131.672 96.843 131.544 96.3235 131.544C95.8222 131.544 95.4325 131.651 95.1545 131.865C94.8765 132.075 94.7375 132.353 94.7375 132.699C94.7375 133.023 94.8993 133.294 95.2229 133.513C95.551 133.731 96.0318 133.937 96.6653 134.128C97.8319 134.479 98.6819 134.914 99.2151 135.434C99.7483 135.953 100.015 136.6 100.015 137.375C100.015 138.236 99.689 138.913 99.0373 139.405C98.3856 139.893 97.5084 140.137 96.4055 140.137C95.6399 140.137 94.9426 139.998 94.3137 139.72C93.6848 139.437 93.204 139.052 92.8713 138.564C92.5432 138.077 92.3791 137.512 92.3791 136.869H94.4368C94.4368 137.967 95.093 138.517 96.4055 138.517C96.8931 138.517 97.2737 138.419 97.5471 138.223C97.8205 138.022 97.9573 137.744 97.9573 137.389Z"
        fill="url(#servicesvgpaint13_linear)" />
    <path
        d="M105.524 140.137C104.439 140.137 103.555 139.804 102.871 139.139C102.192 138.473 101.853 137.587 101.853 136.479V136.288C101.853 135.545 101.996 134.882 102.284 134.299C102.571 133.711 102.976 133.26 103.5 132.945C104.029 132.626 104.631 132.467 105.305 132.467C106.317 132.467 107.112 132.786 107.691 133.424C108.274 134.062 108.566 134.966 108.566 136.138V136.944H103.856C103.92 137.427 104.111 137.815 104.43 138.106C104.754 138.398 105.162 138.544 105.654 138.544C106.415 138.544 107.01 138.268 107.438 137.717L108.409 138.804C108.112 139.223 107.711 139.551 107.205 139.788C106.7 140.021 106.139 140.137 105.524 140.137ZM105.298 134.066C104.906 134.066 104.587 134.199 104.341 134.463C104.1 134.727 103.945 135.105 103.876 135.598H106.624V135.44C106.615 135.003 106.497 134.666 106.269 134.429C106.041 134.187 105.718 134.066 105.298 134.066Z"
        fill="url(#servicesvgpaint14_linear)" />
    <path
        d="M114.69 134.456C114.421 134.42 114.184 134.401 113.979 134.401C113.232 134.401 112.742 134.654 112.509 135.16V140H110.534V132.604H112.4L112.455 133.485C112.851 132.806 113.4 132.467 114.102 132.467C114.321 132.467 114.526 132.496 114.717 132.556L114.69 134.456Z"
        fill="url(#servicesvgpaint15_linear)" />
    <path d="M119.379 137.587L120.753 132.604H122.817L120.322 140H118.435L115.94 132.604H118.005L119.379 137.587Z"
        fill="url(#servicesvgpaint16_linear)" />
    <path
        d="M126.617 140H124.635V132.604H126.617V140ZM124.518 130.689C124.518 130.393 124.616 130.149 124.812 129.958C125.013 129.767 125.284 129.671 125.626 129.671C125.963 129.671 126.232 129.767 126.432 129.958C126.633 130.149 126.733 130.393 126.733 130.689C126.733 130.99 126.631 131.236 126.426 131.428C126.225 131.619 125.959 131.715 125.626 131.715C125.293 131.715 125.024 131.619 124.819 131.428C124.619 131.236 124.518 130.99 124.518 130.689Z"
        fill="url(#servicesvgpaint17_linear)" />
    <path
        d="M132.167 138.544C132.532 138.544 132.828 138.444 133.056 138.243C133.284 138.043 133.402 137.776 133.411 137.443H135.264C135.259 137.945 135.122 138.405 134.854 138.824C134.585 139.239 134.216 139.562 133.746 139.795C133.281 140.023 132.766 140.137 132.201 140.137C131.144 140.137 130.31 139.802 129.699 139.132C129.089 138.457 128.783 137.528 128.783 136.343V136.213C128.783 135.074 129.086 134.164 129.692 133.485C130.299 132.806 131.13 132.467 132.188 132.467C133.113 132.467 133.853 132.731 134.409 133.26C134.97 133.784 135.255 134.483 135.264 135.358H133.411C133.402 134.976 133.284 134.666 133.056 134.429C132.828 134.187 132.527 134.066 132.153 134.066C131.693 134.066 131.344 134.235 131.107 134.572C130.875 134.905 130.759 135.447 130.759 136.199V136.404C130.759 137.165 130.875 137.712 131.107 138.045C131.34 138.378 131.693 138.544 132.167 138.544Z"
        fill="url(#servicesvgpaint18_linear)" />
    <path
        d="M140.636 140.137C139.551 140.137 138.667 139.804 137.984 139.139C137.305 138.473 136.965 137.587 136.965 136.479V136.288C136.965 135.545 137.109 134.882 137.396 134.299C137.683 133.711 138.088 133.26 138.612 132.945C139.141 132.626 139.743 132.467 140.417 132.467C141.429 132.467 142.224 132.786 142.803 133.424C143.386 134.062 143.678 134.966 143.678 136.138V136.944H138.968C139.032 137.427 139.223 137.815 139.542 138.106C139.866 138.398 140.274 138.544 140.766 138.544C141.527 138.544 142.122 138.268 142.55 137.717L143.521 138.804C143.224 139.223 142.823 139.551 142.318 139.788C141.812 140.021 141.251 140.137 140.636 140.137ZM140.41 134.066C140.018 134.066 139.699 134.199 139.453 134.463C139.212 134.727 139.057 135.105 138.988 135.598H141.737V135.44C141.727 135.003 141.609 134.666 141.381 134.429C141.153 134.187 140.83 134.066 140.41 134.066Z"
        fill="url(#servicesvgpaint19_linear)" />
    <path
        d="M149.652 137.956C149.652 137.715 149.531 137.525 149.289 137.389C149.052 137.247 148.67 137.122 148.141 137.013C146.382 136.644 145.502 135.896 145.502 134.771C145.502 134.114 145.773 133.567 146.316 133.13C146.863 132.688 147.576 132.467 148.455 132.467C149.394 132.467 150.144 132.688 150.704 133.13C151.27 133.572 151.552 134.146 151.552 134.853H149.577C149.577 134.57 149.485 134.338 149.303 134.155C149.121 133.968 148.836 133.875 148.449 133.875C148.116 133.875 147.858 133.95 147.676 134.101C147.494 134.251 147.403 134.442 147.403 134.675C147.403 134.894 147.505 135.071 147.71 135.208C147.92 135.34 148.271 135.456 148.763 135.557C149.255 135.652 149.67 135.762 150.007 135.885C151.051 136.268 151.573 136.931 151.573 137.874C151.573 138.549 151.283 139.095 150.704 139.515C150.126 139.929 149.378 140.137 148.462 140.137C147.842 140.137 147.291 140.027 146.808 139.809C146.329 139.585 145.953 139.282 145.68 138.899C145.407 138.512 145.27 138.095 145.27 137.648H147.143C147.161 137.999 147.291 138.268 147.533 138.455C147.774 138.642 148.098 138.735 148.503 138.735C148.882 138.735 149.166 138.665 149.358 138.523C149.554 138.378 149.652 138.188 149.652 137.956Z"
        fill="url(#servicesvgpaint20_linear)" />
    <path
        d="M134 43C143.941 43 152 36.2843 152 28C152 19.7157 143.941 13 134 13C124.059 13 116 19.7157 116 28C116 36.2843 124.059 43 134 43Z"
        stroke="url(#servicesvgpaint21_linear)" stroke-width="2" stroke-miterlimit="10" />
    <path
        d="M140.442 20.2175C137.768 15.6593 134.046 13.4807 134.046 13.4807C134.046 13.4807 126.049 17.4214 125.776 26.7942C125.5 36.1671 134 42.569 134 42.569C134 42.569 137.848 39.6156 140.578 35.7447"
        stroke="url(#servicesvgpaint22_linear)" stroke-width="2" stroke-miterlimit="10" />
    <path d="M125.786 27.8543H116" stroke="url(#servicesvgpaint23_linear)" stroke-width="2" stroke-miterlimit="10" />
    <path d="M118.929 19.9903H127.481H149.42H118.929Z" stroke="url(#servicesvgpaint24_linear)" stroke-width="2"
        stroke-miterlimit="10" />
    <path d="M118.929 36.0097H149.42H118.929Z" stroke="url(#servicesvgpaint25_linear)" stroke-width="2" stroke-miterlimit="10" />
    <path
        d="M134.445 26.8092L137.304 23H139.156L135.387 27.9287L139.246 32.9393H137.378L134.445 29.0619L131.496 32.9393H129.637L133.503 27.9287L129.727 23H131.57L134.445 26.8092Z"
        stroke="url(#servicesvgpaint26_linear)" stroke-width="2" stroke-miterlimit="10" />
    <path d="M147.65 28.5499H142.645V32.9393H141.072V23H148.461V24.0786H142.645V27.4782H147.65V28.5499Z"
        stroke="url(#servicesvgpaint27_linear)" stroke-width="2" stroke-miterlimit="10" />
    <rect x="2" y="2" width="234" height="144" rx="24" stroke="url(#servicesvgpaint28_linear)" stroke-width="4" />
    <defs>
        <linearGradient id="servicesvgpaint0_linear" x1="100.444" y1="27.9959" x2="100.444" y2="43.5636"
            gradientUnits="userSpaceOnUse">
            <stop stop-color="#1E8130" />
            <stop offset="0.0001" />
            <stop offset="1" stop-color="#49811E" />
        </linearGradient>
        <linearGradient id="servicesvgpaint1_linear" x1="93" y1="20.5" x2="100.448" y2="111" gradientUnits="userSpaceOnUse">
            <stop stop-color="#49811E" />
            <stop />
            <stop offset="1" stop-color="#49811E" />
        </linearGradient>
        <linearGradient id="servicesvgpaint2_linear" x1="119" y1="62.5" x2="119" y2="108" gradientUnits="userSpaceOnUse">
            <stop />
            <stop offset="0.0001" />
            <stop offset="1" stop-color="#49811E" />
        </linearGradient>
        <linearGradient id="servicesvgpaint3_linear" x1="69.5" y1="110.5" x2="141" y2="143" gradientUnits="userSpaceOnUse">
            <stop offset="0.0116472" />
            <stop offset="1" stop-color="#49811E" />
        </linearGradient>
        <linearGradient id="servicesvgpaint4_linear" x1="69.5" y1="110.5" x2="141" y2="143" gradientUnits="userSpaceOnUse">
            <stop offset="0.0116472" />
            <stop offset="1" stop-color="#49811E" />
        </linearGradient>
        <linearGradient id="servicesvgpaint5_linear" x1="69.5" y1="110.5" x2="141" y2="143" gradientUnits="userSpaceOnUse">
            <stop offset="0.0116472" />
            <stop offset="1" stop-color="#49811E" />
        </linearGradient>
        <linearGradient id="servicesvgpaint6_linear" x1="69.5" y1="110.5" x2="141" y2="143" gradientUnits="userSpaceOnUse">
            <stop offset="0.0116472" />
            <stop offset="1" stop-color="#49811E" />
        </linearGradient>
        <linearGradient id="servicesvgpaint7_linear" x1="69.5" y1="110.5" x2="141" y2="143" gradientUnits="userSpaceOnUse">
            <stop offset="0.0116472" />
            <stop offset="1" stop-color="#49811E" />
        </linearGradient>
        <linearGradient id="servicesvgpaint8_linear" x1="69.5" y1="110.5" x2="141" y2="143" gradientUnits="userSpaceOnUse">
            <stop offset="0.0116472" />
            <stop offset="1" stop-color="#49811E" />
        </linearGradient>
        <linearGradient id="servicesvgpaint9_linear" x1="69.5" y1="110.5" x2="141" y2="143" gradientUnits="userSpaceOnUse">
            <stop offset="0.0116472" />
            <stop offset="1" stop-color="#49811E" />
        </linearGradient>
        <linearGradient id="servicesvgpaint10_linear" x1="69.5" y1="110.5" x2="141" y2="143" gradientUnits="userSpaceOnUse">
            <stop offset="0.0116472" />
            <stop offset="1" stop-color="#49811E" />
        </linearGradient>
        <linearGradient id="servicesvgpaint11_linear" x1="69.5" y1="110.5" x2="141" y2="143" gradientUnits="userSpaceOnUse">
            <stop offset="0.0116472" />
            <stop offset="1" stop-color="#49811E" />
        </linearGradient>
        <linearGradient id="servicesvgpaint12_linear" x1="69.5" y1="110.5" x2="141" y2="143" gradientUnits="userSpaceOnUse">
            <stop offset="0.0116472" />
            <stop offset="1" stop-color="#49811E" />
        </linearGradient>
        <linearGradient id="servicesvgpaint13_linear" x1="69.5" y1="110.5" x2="141" y2="143" gradientUnits="userSpaceOnUse">
            <stop offset="0.0116472" />
            <stop offset="1" stop-color="#49811E" />
        </linearGradient>
        <linearGradient id="servicesvgpaint14_linear" x1="69.5" y1="110.5" x2="141" y2="143" gradientUnits="userSpaceOnUse">
            <stop offset="0.0116472" />
            <stop offset="1" stop-color="#49811E" />
        </linearGradient>
        <linearGradient id="servicesvgpaint15_linear" x1="69.5" y1="110.5" x2="141" y2="143" gradientUnits="userSpaceOnUse">
            <stop offset="0.0116472" />
            <stop offset="1" stop-color="#49811E" />
        </linearGradient>
        <linearGradient id="servicesvgpaint16_linear" x1="69.5" y1="110.5" x2="141" y2="143" gradientUnits="userSpaceOnUse">
            <stop offset="0.0116472" />
            <stop offset="1" stop-color="#49811E" />
        </linearGradient>
        <linearGradient id="servicesvgpaint17_linear" x1="69.5" y1="110.5" x2="141" y2="143" gradientUnits="userSpaceOnUse">
            <stop offset="0.0116472" />
            <stop offset="1" stop-color="#49811E" />
        </linearGradient>
        <linearGradient id="servicesvgpaint18_linear" x1="69.5" y1="110.5" x2="141" y2="143" gradientUnits="userSpaceOnUse">
            <stop offset="0.0116472" />
            <stop offset="1" stop-color="#49811E" />
        </linearGradient>
        <linearGradient id="servicesvgpaint19_linear" x1="69.5" y1="110.5" x2="141" y2="143" gradientUnits="userSpaceOnUse">
            <stop offset="0.0116472" />
            <stop offset="1" stop-color="#49811E" />
        </linearGradient>
        <linearGradient id="servicesvgpaint20_linear" x1="69.5" y1="110.5" x2="141" y2="143" gradientUnits="userSpaceOnUse">
            <stop offset="0.0116472" />
            <stop offset="1" stop-color="#49811E" />
        </linearGradient>
        <linearGradient id="servicesvgpaint21_linear" x1="134" y1="13" x2="134" y2="43" gradientUnits="userSpaceOnUse">
            <stop />
            <stop offset="1" stop-color="#49811E" />
        </linearGradient>
        <linearGradient id="servicesvgpaint22_linear" x1="133.174" y1="13.4807" x2="133.174" y2="42.569"
            gradientUnits="userSpaceOnUse">
            <stop />
            <stop offset="1" stop-color="#49811E" />
        </linearGradient>
        <linearGradient id="servicesvgpaint23_linear" x1="120.893" y1="27.8543" x2="120.893" y2="28.8543"
            gradientUnits="userSpaceOnUse">
            <stop />
            <stop offset="1" stop-color="#49811E" />
        </linearGradient>
        <linearGradient id="servicesvgpaint24_linear" x1="134.175" y1="19.9903" x2="134.175" y2="20.9903"
            gradientUnits="userSpaceOnUse">
            <stop />
            <stop offset="1" stop-color="#49811E" />
        </linearGradient>
        <linearGradient id="servicesvgpaint25_linear" x1="134.175" y1="36.0097" x2="134.175" y2="37.0097"
            gradientUnits="userSpaceOnUse">
            <stop />
            <stop offset="1" stop-color="#49811E" />
        </linearGradient>
        <linearGradient id="servicesvgpaint26_linear" x1="139.049" y1="23" x2="139.049" y2="32.9393"
            gradientUnits="userSpaceOnUse">
            <stop />
            <stop offset="1" stop-color="#49811E" />
        </linearGradient>
        <linearGradient id="servicesvgpaint27_linear" x1="139.049" y1="23" x2="139.049" y2="32.9393"
            gradientUnits="userSpaceOnUse">
            <stop />
            <stop offset="1" stop-color="#49811E" />
        </linearGradient>
        <linearGradient id="servicesvgpaint28_linear" x1="-1.5" y1="-10" x2="258" y2="162.5" gradientUnits="userSpaceOnUse">
            <stop offset="0.013618" stop-color="#020900" />
            <stop offset="1" stop-color="#49811E" />
        </linearGradient>
    </defs>
</svg>