<svg width="161" height="160" viewBox="0 0 161 160" fill="none" xmlns="http://www.w3.org/2000/svg">
<circle cx="80.2158" cy="80" r="80" fill="#FFFCFC"/>
<path d="M100.92 59.027V53.7757C100.92 53.2943 100.49 52.9004 99.9641 52.9004H54.1071C53.5817 52.9004 53.1517 53.2943 53.1517 53.7757V59.027C53.1517 59.5084 53.5817 59.9023 54.1071 59.9023H99.9641C100.49 59.9023 100.92 59.5084 100.92 59.027ZM54.1071 68.6546C53.5817 68.6546 53.1517 69.0484 53.1517 69.5298V74.7812C53.1517 75.2625 53.5817 75.6564 54.1071 75.6564H76.0803C76.6057 75.6564 77.0356 75.2625 77.0356 74.7812V69.5298C77.0356 69.0484 76.6057 68.6546 76.0803 68.6546H54.1071ZM71.3035 118.105H43.5982V41.0848H110.473V78.7197C110.473 79.2011 110.903 79.5949 111.428 79.5949H118.116C118.641 79.5949 119.071 79.2011 119.071 78.7197V36.7087C119.071 34.7722 117.364 33.2078 115.25 33.2078H38.8214C36.7077 33.2078 35 34.7722 35 36.7087V122.481C35 124.418 36.7077 125.982 38.8214 125.982H71.3035C71.8289 125.982 72.2588 125.588 72.2588 125.107V118.98C72.2588 118.499 71.8289 118.105 71.3035 118.105ZM124.529 123.739L113.387 113.532C116.05 110.305 117.638 106.278 117.638 101.913C117.638 91.2792 108.228 82.6582 96.6204 82.6582C85.0128 82.6582 75.6026 91.2792 75.6026 101.913C75.6026 112.547 85.0128 121.168 96.6204 121.168C100.896 121.168 104.86 119.998 108.18 117.996L119.489 128.356C119.68 128.531 119.919 128.608 120.158 128.608C120.397 128.608 120.648 128.52 120.827 128.356L124.529 124.965C124.617 124.884 124.687 124.789 124.734 124.684C124.782 124.579 124.807 124.466 124.807 124.352C124.807 124.238 124.782 124.125 124.734 124.02C124.687 123.915 124.617 123.82 124.529 123.739V123.739ZM96.6204 114.166C89.2283 114.166 83.2454 108.685 83.2454 101.913C83.2454 95.1412 89.2283 89.6601 96.6204 89.6601C104.012 89.6601 109.995 95.1412 109.995 101.913C109.995 108.685 104.012 114.166 96.6204 114.166Z" fill="#767676"/>
</svg>
