<svg width="40" height="40" viewBox="0 0 52 52" fill="none" xmlns="http://www.w3.org/2000/svg">
<rect x="0.5" y="0.5" width="51" height="51" rx="5.5" fill="#FFFCFC"/>
<path d="M48 7.02073C46.0848 8.41357 43.9642 9.47887 41.72 10.1756C40.5155 8.74769 38.9147 7.73562 37.1341 7.27627C35.3535 6.81693 33.479 6.93247 31.7642 7.60728C30.0493 8.28209 28.5769 9.4836 27.546 11.0493C26.515 12.615 25.9754 14.4694 26 16.3616V18.4236C22.4853 18.5176 19.0025 17.7139 15.862 16.0842C12.7215 14.4544 10.0206 12.0492 8 9.08274C8 9.08274 4.76837e-07 27.6408 18 35.8888C13.8811 38.7715 8.97431 40.2168 4 40.0128C22 50.3229 44 40.0128 44 16.2998C43.9982 15.7254 43.9446 15.1525 43.84 14.5883C45.8812 12.5129 47.3217 9.89252 48 7.02073Z" fill="#040404" stroke="black" stroke-width="2" stroke-linecap="round" stroke-linejoin="round"/>
<rect x="0.5" y="0.5" width="51" height="51" rx="5.5" stroke="white"/>
</svg>
