<svg width="1118" height="554" viewBox="0 0 1118 554" fill="none" xmlns="http://www.w3.org/2000/svg">
<ellipse cx="72" cy="488" rx="72" ry="66" fill="#FFFCFC"/>
<path d="M63.65 472.568L59.5167 475.363L65.7167 479.557C63.1333 480.605 61.0667 482.352 60.0333 484.449H48.6667V487.943H59V491.437H48.6667V494.932H59V498.426H48.6667V501.92H60.0333C62.1 506.113 67.7833 508.909 74.5 508.909C81.2167 508.909 86.9 506.113 88.9667 501.92H100.333V498.426H90V494.932H100.333V491.437H90V487.943H100.333V484.449H88.9667C87.9333 482.352 85.8667 480.605 83.2833 479.207L89.4833 475.014L85.8667 472.568L78.6333 477.46H74.5C73.4667 477.46 71.9167 477.46 70.8833 477.81L63.65 472.568ZM69.3333 487.943H79.6667V491.437H69.3333V487.943ZM69.3333 494.932H79.6667V498.426H69.3333V494.932ZM121 487.943C121 507.162 101.367 525.332 74.5 529.875C47.6333 525.332 28 507.162 28 487.943V466.977L74.5 453L121 466.977V487.943ZM74.5 522.886C94.1333 519.392 110.667 503.667 110.667 488.642V471.52L74.5 460.687L38.3333 471.52V488.642C38.3333 503.667 54.8667 519.392 74.5 522.886Z" fill="#6FB5BF"/>
<ellipse cx="72" cy="158" rx="72" ry="66" fill="#FFFCFC"/>
<path d="M84.642 153.175L100.731 140.221L95.9353 135.064L72.8903 153.615L49.3723 135.044L44.6277 140.241L72.8683 162.547C70.3323 166.33 68.9918 170.701 69 175.159C69 178.823 69.8873 182.288 71.4713 185.391H39.6667C38.6942 185.391 37.7616 185.032 37.0739 184.392C36.3863 183.753 36 182.885 36 181.981V127.411C36 126.506 36.3863 125.639 37.0739 124.999C37.7616 124.359 38.6942 124 39.6667 124H105.667C106.639 124 107.572 124.359 108.259 124.999C108.947 125.639 109.333 126.506 109.333 127.411V155.565C105.033 152.772 99.912 151.278 94.6667 151.285C91.11 151.285 87.722 151.957 84.642 153.175ZM89.922 184.395C91.9752 185.309 94.2825 185.608 96.5259 185.251C98.7693 184.894 100.838 183.898 102.448 182.401C104.057 180.904 105.128 178.979 105.512 176.892C105.896 174.806 105.575 172.659 104.592 170.75L89.9257 184.392L89.922 184.395ZM84.7373 179.569L99.4077 165.927C97.3545 165.013 95.0472 164.714 92.8038 165.072C90.5603 165.429 88.4913 166.425 86.8819 167.922C85.2724 169.419 84.2019 171.343 83.8178 173.43C83.4337 175.517 83.755 177.663 84.7373 179.573V179.569ZM94.6667 192.213C89.8044 192.213 85.1412 190.416 81.703 187.218C78.2649 184.02 76.3333 179.682 76.3333 175.159C76.3333 170.637 78.2649 166.299 81.703 163.101C85.1412 159.903 89.8044 158.106 94.6667 158.106C99.529 158.106 104.192 159.903 107.63 163.101C111.068 166.299 113 170.637 113 175.159C113 179.682 111.068 184.02 107.63 187.218C104.192 190.416 99.529 192.213 94.6667 192.213Z" fill="#6FB5BF"/>
<ellipse cx="558" cy="66" rx="72" ry="66" fill="#FFFCFC"/>
<path d="M554.316 90.8708C553.678 90.966 553.033 91.0129 552.387 91.0108H552.613C547.05 91.0231 542.102 88.4494 536.325 84.7236C514.607 84.7236 518.226 107.484 518.226 107.484" stroke="#6FB5BF" stroke-width="5" stroke-linecap="round" stroke-linejoin="round"/>
<path d="M551.774 97.4084H536.321L536.325 84.7236" stroke="#6FB5BF" stroke-width="5" stroke-linecap="round" stroke-linejoin="round"/>
<path d="M527.88 86.245V107.448" stroke="#6FB5BF" stroke-width="5" stroke-linecap="round" stroke-linejoin="round"/>
<path d="M551.193 110.783H596.421L609 82.1586H563.772L551.193 110.783V110.783Z" stroke="#6FB5BF" stroke-width="5" stroke-linecap="round" stroke-linejoin="round"/>
<path d="M531.341 110.785H551.195" stroke="#6FB5BF" stroke-width="5" stroke-linecap="round" stroke-linejoin="round"/>
<path d="M556.889 68.4425L552.466 63.1655" stroke="#6FB5BF" stroke-width="5" stroke-linecap="round" stroke-linejoin="round"/>
<path d="M548.045 68.4425L552.466 63.1655" stroke="#6FB5BF" stroke-width="5" stroke-linecap="round" stroke-linejoin="round"/>
<path d="M548.045 63.1655H556.89" stroke="#6FB5BF" stroke-width="5" stroke-linecap="round" stroke-linejoin="round"/>
<path d="M577.653 47.9229L578.446 55.2484C578.45 58.3644 577.825 61.4511 576.605 64.3352" stroke="#6FB5BF" stroke-width="5" stroke-linecap="round" stroke-linejoin="round"/>
<path d="M528.328 64.3334C527.109 61.4498 526.484 58.3637 526.487 55.2483L530.357 22L542.03 32.8744C545.163 31.6145 548.523 30.9683 551.916 30.973H553.02C556.413 30.9681 559.775 31.6144 562.909 32.8744L574.578 22.0018L575.784 33.2036" stroke="#6FB5BF" stroke-width="5" stroke-linecap="round" stroke-linejoin="round"/>
<path d="M538.462 75.6787C542.506 78.0882 547.165 79.3597 551.914 79.3503H553.018C557.768 79.3597 562.427 78.0882 566.471 75.6787" stroke="#6FB5BF" stroke-width="5" stroke-linecap="round" stroke-linejoin="round"/>
<path d="M539.201 56.8328C540.422 56.8328 541.413 55.8874 541.413 54.7213C541.413 53.5551 540.422 52.6097 539.201 52.6097C537.979 52.6097 536.989 53.5551 536.989 54.7213C536.989 55.8874 537.979 56.8328 539.201 56.8328Z" fill="#6FB5BF"/>
<path d="M565.735 56.8328C566.957 56.8328 567.947 55.8874 567.947 54.7213C567.947 53.5551 566.957 52.6097 565.735 52.6097C564.514 52.6097 563.523 53.5551 563.523 54.7213C563.523 55.8874 564.514 56.8328 565.735 56.8328Z" fill="#6FB5BF"/>
<path d="M572.777 49.8102C572.777 49.8102 557.994 55.7771 558.691 56.5334C572.835 68.8174 573.944 51.5225 572.777 49.8102Z" stroke="#6FB5BF" stroke-width="5" stroke-linecap="round" stroke-linejoin="round"/>
<path d="M579.744 71.2544L569.794 65.9757" stroke="#6FB5BF" stroke-width="5" stroke-linecap="round" stroke-linejoin="round"/>
<path d="M575.683 75.8311L565.734 70.554" stroke="#6FB5BF" stroke-width="5" stroke-linecap="round" stroke-linejoin="round"/>
<path d="M532.156 49.8102C532.156 49.8102 545.833 56.8311 546.244 56.5335C532.589 69.4618 530.777 52.6186 532.156 49.8102Z" stroke="#6FB5BF" stroke-width="5" stroke-linecap="round" stroke-linejoin="round"/>
<path d="M525.189 71.2544L535.138 65.9757" stroke="#6FB5BF" stroke-width="5" stroke-linecap="round" stroke-linejoin="round"/>
<path d="M529.25 75.8311L539.201 70.554" stroke="#6FB5BF" stroke-width="5" stroke-linecap="round" stroke-linejoin="round"/>
<path d="M572.643 38.1443L528.581 37.1218L527.699 45.3999L572.656 42.7701" stroke="#6FB5BF" stroke-width="5" stroke-linecap="round" stroke-linejoin="round"/>
<path d="M578.977 40.4486C578.977 41.1412 578.764 41.8182 578.367 42.3941C577.969 42.9699 577.404 43.4187 576.742 43.6838C576.081 43.9488 575.353 44.0181 574.651 43.883C573.949 43.7479 573.304 43.4144 572.797 42.9247C572.291 42.435 571.947 41.811 571.807 41.1318C571.667 40.4525 571.739 39.7484 572.013 39.1086C572.287 38.4687 572.751 37.9218 573.346 37.537C573.941 37.1523 574.641 36.9469 575.357 36.9469C576.317 36.9469 577.238 37.3158 577.916 37.9725C578.595 38.6292 578.977 39.5199 578.977 40.4486Z" stroke="#6FB5BF" stroke-width="5" stroke-linecap="round" stroke-linejoin="round"/>
<ellipse cx="1046" cy="162" rx="72" ry="66" fill="#FFFCFC"/>
<path d="M1073.91 124H1017.1C1011.53 124 1007 128.076 1007 133.086V184.207C1007 189.218 1011.53 193.295 1017.1 193.295H1073.91C1079.47 193.295 1084 189.219 1084 184.207V133.086C1084 128.076 1079.47 124 1073.91 124ZM1069.17 165.75H1053.39V179.946H1037.62V165.75H1021.84V151.545H1037.62V137.349H1053.39V151.545H1069.17V165.75Z" fill="#6FB5BF"/>
<ellipse cx="1046" cy="484" rx="72" ry="66" fill="#FFFCFC"/>
<path d="M1088.17 520.991C1085.7 522.271 1083.71 522.965 1082.2 523.103C1084.19 520.521 1085.24 517.369 1085.36 513.661C1085.48 509.738 1084.31 507.004 1081.78 505.566L1081.78 505.566L1081.77 505.56C1079.86 504.613 1078.27 503.352 1076.99 501.777C1075.71 500.194 1074.83 498.607 1074.36 497.018C1073.88 495.402 1073.53 493.867 1073.32 492.415C1073.11 490.956 1073.04 489.785 1073.1 488.893L1073.1 488.892L1073.19 487.449L1073.23 486.784L1072.76 487.257C1072.4 487.617 1071.89 488.082 1071.23 488.652C1070.55 489.234 1069.38 490.387 1067.72 492.104C1066.05 493.827 1064.57 495.483 1063.3 497.07C1062.01 498.665 1060.84 500.477 1059.77 502.506C1058.7 504.542 1058.16 506.37 1058.16 507.983C1058.16 511.406 1058.84 514.272 1060.24 516.566C1061.53 518.702 1063.59 520.885 1066.39 523.118C1063.79 523.05 1061.08 522.622 1058.25 521.832C1055.15 520.968 1052.57 519.699 1050.48 518.028L1050.48 518.028C1049.26 517.058 1047.91 515.044 1046.46 511.932C1045.02 508.836 1044.24 506.05 1044.12 503.572L1044.12 503.57C1043.95 500.547 1044.62 497.16 1046.15 493.404C1047.68 489.652 1049.89 486.09 1052.78 482.718C1054.95 480.303 1057.51 477.93 1060.47 475.602C1063.43 473.271 1066.26 471.331 1068.97 469.781C1071.7 468.224 1074.27 466.829 1076.68 465.594C1079.1 464.358 1081.03 463.47 1082.47 462.925L1082.47 462.925L1082.48 462.922L1083.81 462.377C1083.78 462.424 1083.75 462.474 1083.71 462.524C1083.46 462.929 1083.06 463.734 1082.52 464.924C1081.97 466.13 1081.55 467.361 1081.28 468.616C1081 469.881 1080.89 471.438 1080.95 473.283C1081.01 475.144 1081.38 476.97 1082.06 478.758C1082.74 480.554 1083.92 482.523 1085.59 484.666C1087.27 486.816 1089.39 488.88 1091.95 490.861L1091.95 490.863C1094.96 493.139 1097.34 495.627 1099.11 498.326C1100.88 501.023 1101.75 503.6 1101.75 506.059C1101.75 507.563 1101.27 509.253 1100.28 511.131C1099.3 512.994 1097.8 514.697 1095.76 516.237C1093.48 517.969 1090.94 519.554 1088.17 520.991ZM1038.86 494.412C1038.49 493.84 1038.31 493.233 1038.31 492.588V479.392C1038.31 478.296 1038.84 477.333 1039.94 476.498C1041.04 475.664 1042.35 475.243 1043.88 475.243H1052.43C1050.28 476.962 1048.35 478.604 1046.61 480.168L1046.61 480.17C1042.97 483.509 1040.39 488.263 1038.86 494.412ZM1055.75 466.196V457.399C1055.75 456.302 1056.27 455.34 1057.38 454.505C1058.48 453.671 1059.79 453.25 1061.31 453.25H1084.56C1085.62 453.25 1086.61 453.479 1087.53 453.936C1077.85 458.116 1068.42 463.486 1059.27 470.046C1058.21 469.733 1057.37 469.227 1056.73 468.535C1056.07 467.819 1055.75 467.042 1055.75 466.196ZM1043.88 470.345H1014.81C1013.29 470.345 1011.98 469.935 1010.87 469.122C1009.78 468.313 1009.25 467.341 1009.25 466.196V457.399C1009.25 456.302 1009.77 455.34 1010.88 454.505C1011.98 453.671 1013.29 453.25 1014.81 453.25H1043.88C1045.46 453.25 1046.78 453.672 1047.85 454.503C1048.93 455.337 1049.44 456.3 1049.44 457.399V466.196C1049.44 467.343 1048.92 468.316 1047.86 469.124C1046.79 469.933 1045.46 470.345 1043.88 470.345ZM1014.81 475.243H1026.44C1028.03 475.243 1029.35 475.665 1030.42 476.496C1031.49 477.33 1032 478.293 1032 479.392V492.588C1032 493.735 1031.49 494.708 1030.42 495.516C1029.35 496.325 1028.03 496.736 1026.44 496.736H1014.81C1013.29 496.736 1011.98 496.326 1010.87 495.514C1009.78 494.705 1009.25 493.732 1009.25 492.588V479.392C1009.25 478.296 1009.77 477.333 1010.88 476.498C1011.98 475.664 1013.29 475.243 1014.81 475.243ZM1014.81 501.635H1037.8C1037.75 502.585 1037.76 503.424 1037.81 504.15C1037.94 506.754 1038.75 509.898 1040.24 513.575C1040.98 515.414 1041.69 516.921 1042.38 518.092C1043.06 519.258 1043.71 520.108 1044.35 520.618C1045.06 521.196 1045.89 521.81 1046.84 522.46C1045.95 522.905 1044.96 523.128 1043.88 523.128H1014.81C1013.29 523.128 1011.98 522.718 1010.87 521.905C1009.78 521.097 1009.25 520.124 1009.25 518.98V505.784C1009.25 504.687 1009.77 503.725 1010.88 502.89C1011.98 502.056 1013.29 501.635 1014.81 501.635Z" fill="#6FB5BF" stroke="#6FB5BF" stroke-width="0.5"/>
<path d="M143.226 186.623C141.913 187.05 141.195 188.461 141.623 189.774L148.587 211.169C149.015 212.482 150.426 213.2 151.738 212.772C153.051 212.345 153.769 210.934 153.342 209.621L147.151 190.603L166.169 184.413C167.482 183.985 168.2 182.574 167.772 181.262C167.345 179.949 165.934 179.231 164.621 179.658L143.226 186.623ZM428.134 330.772L145.134 186.772L142.866 191.228L425.866 335.228L428.134 330.772Z" fill="#FFFBFB"/>
<path d="M966.768 477.768C967.744 476.791 967.744 475.209 966.768 474.232L950.858 458.322C949.882 457.346 948.299 457.346 947.322 458.322C946.346 459.299 946.346 460.882 947.322 461.858L961.464 476L947.322 490.142C946.346 491.118 946.346 492.701 947.322 493.678C948.299 494.654 949.882 494.654 950.858 493.678L966.768 477.768ZM647.001 478.5L965 478.5L965 473.5L647.001 473.5L647.001 478.5Z" fill="#FFFDFD"/>
<path d="M976.356 189.835C976.818 188.533 976.136 187.105 974.835 186.644L953.626 179.13C952.325 178.669 950.896 179.35 950.435 180.652C949.974 181.953 950.655 183.382 951.957 183.843L970.809 190.522L964.13 209.374C963.669 210.675 964.35 212.104 965.652 212.565C966.953 213.026 968.382 212.345 968.843 211.043L976.356 189.835ZM673.076 335.257L975.076 191.257L972.924 186.743L670.924 330.743L673.076 335.257Z" fill="#FFFDFD"/>
<path d="M556.768 141.232C555.791 140.256 554.209 140.256 553.232 141.232L537.322 157.142C536.346 158.118 536.346 159.701 537.322 160.678C538.299 161.654 539.882 161.654 540.858 160.678L555 146.536L569.142 160.678C570.118 161.654 571.701 161.654 572.678 160.678C573.654 159.701 573.654 158.118 572.678 157.142L556.768 141.232ZM557.5 258L557.5 143L552.5 143L552.5 258L557.5 258Z" fill="#FFFDFD"/>
<path d="M148.238 473.226C147.259 474.199 147.253 475.782 148.226 476.762L164.083 492.725C165.056 493.705 166.639 493.71 167.618 492.737C168.598 491.764 168.603 490.181 167.63 489.201L153.535 475.012L167.725 460.917C168.705 459.944 168.71 458.361 167.737 457.382C166.764 456.402 165.181 456.397 164.201 457.37L148.238 473.226ZM448.008 473.5L150.008 472.5L149.992 477.5L447.992 478.5L448.008 473.5Z" fill="white"/>
<ellipse cx="548.5" cy="386.5" rx="140.5" ry="132.5" fill="#FFFCFC"/>
<path d="M543.022 450.864V450.364H542.522H451.652C447.634 450.364 444.5 447.52 444.5 444.129V339.735C444.5 336.344 447.634 333.5 451.652 333.5H650.61C654.629 333.5 657.763 336.344 657.763 339.735V444.129C657.763 447.52 654.629 450.364 650.61 450.364H559.74H559.24V450.864V474.437V474.937H559.74H600.871C602.761 474.937 604.197 476.286 604.197 477.804V487.907C604.197 488.499 603.622 489.09 602.784 489.09H499.479C498.641 489.09 498.066 488.499 498.066 487.907V477.804C498.066 476.286 499.502 474.937 501.392 474.937H542.522H543.022V474.437V450.864ZM641.045 436.21H641.545V435.71V348.154V347.654H641.045H461.218H460.718V348.154V435.71V436.21H461.218H641.045Z" fill="#6FB5BF" stroke="#6FB5BF"/>
<path d="M586.627 411.295C587.926 411.295 589.172 410.89 590.091 410.169C591.009 409.448 591.526 408.47 591.526 407.451V376.695C591.526 375.676 591.009 374.698 590.091 373.977C589.172 373.256 587.926 372.851 586.627 372.851H577.329H576.829V372.351V366.066C576.829 365.246 576.496 364.447 575.877 363.787C575.258 363.126 574.387 362.638 573.389 362.394L586.627 411.295ZM586.627 411.295L570.852 411.299M586.627 411.295L570.852 411.299M570.852 411.299C568.956 413.26 566.653 414.99 563.993 416.412M570.852 411.299L563.993 416.412M563.993 416.412L537.636 430.517M563.993 416.412L498.444 397.355M498.444 397.355C498.444 401.113 499.613 404.813 501.85 408.135C504.087 411.457 507.324 414.3 511.28 416.416L537.636 430.517M498.444 397.355V366.066V397.355ZM537.636 430.517L537.872 430.077L537.636 429.95M537.636 430.517L537.401 430.077L537.636 429.95M537.636 429.95L511.516 415.975C507.623 413.892 504.451 411.102 502.265 407.856C500.079 404.611 498.944 401.006 498.944 397.355V397.355V366.066M537.636 429.95L563.757 415.971L563.757 415.971C566.375 414.572 568.635 412.872 570.492 410.952L570.64 410.799L570.852 410.799L586.626 410.795H586.627C587.827 410.795 588.961 410.42 589.782 409.776C590.6 409.134 591.026 408.293 591.026 407.451V376.695C591.026 375.853 590.6 375.012 589.782 374.37C588.961 373.726 587.827 373.351 586.627 373.351H576.829H576.329V372.851V366.066V366.065C576.329 365.386 576.054 364.707 575.512 364.129C574.968 363.548 574.186 363.104 573.27 362.88L573.27 362.88L537.636 354.144M498.944 366.066L537.756 354.114L537.636 354.144M498.944 366.066C498.945 365.387 499.221 364.709 499.762 364.131C500.306 363.551 501.087 363.108 502.002 362.884L502.003 362.884L537.636 354.144M498.944 366.066L537.636 354.144M537.756 361.193L537.636 361.164L537.517 361.193L508.123 368.406L507.742 368.499V368.891V397.355C507.742 397.355 507.742 397.355 507.742 397.355C507.742 399.809 508.459 402.222 509.829 404.409C511.198 406.595 513.182 408.493 515.616 409.966L515.623 409.97L515.629 409.974L516.555 410.497L516.555 410.497L516.565 410.502L537.4 421.655L537.636 421.781L537.872 421.655L556.4 411.736L556.165 410.795H532.737C531.537 410.795 530.403 410.42 529.582 409.776C528.764 409.134 528.338 408.293 528.338 407.451V376.695C528.338 375.853 528.764 375.012 529.582 374.37C530.403 373.726 531.537 373.351 532.737 373.351H567.031H567.531V372.851V368.891V368.499L567.15 368.406L537.756 361.193ZM537.636 391.573H537.136V392.073V403.606V404.106H537.636H581.728H582.228V403.606V392.073V391.573H581.728H537.636ZM537.136 384.384V384.884H537.636H581.728H582.228V384.384V380.54V380.04H581.728H537.636H537.136V380.54V384.384Z" fill="#6FB5BF" stroke="#6FB5BF"/>
</svg>
